<svg width="1021" height="516" viewBox="0 0 1021 516" fill="none" xmlns="http://www.w3.org/2000/svg">
<rect width="1021" height="516" fill="#F5F5F5"/>
<rect width="1021" height="515" fill="white"/>
<path d="M103.5 151.148C160.661 151.148 207 197.487 207 254.648C207 311.81 160.661 358.148 103.5 358.148C46.3385 358.148 0 311.81 0 254.648C0 197.487 46.3385 151.148 103.5 151.148ZM103 204.148C74.8335 204.148 52 226.982 52 255.148C52 283.315 74.8335 306.148 103 306.148C131.167 306.148 154 283.315 154 255.148C154 226.982 131.167 204.148 103 204.148Z" fill="#3E6FF4"/>
<path d="M365.5 151.148C422.661 151.148 469 197.487 469 254.648C469 311.81 422.661 358.148 365.5 358.148C308.339 358.148 262 311.81 262 254.648C262 197.487 308.339 151.148 365.5 151.148ZM365 204.148C336.833 204.148 314 226.982 314 255.148C314 283.315 336.833 306.148 365 306.148C393.167 306.148 416 283.315 416 255.148C416 226.982 393.167 204.148 365 204.148Z" fill="#3E6FF4"/>
<path d="M917.5 0.148163C974.661 0.148163 1021 46.4867 1021 103.648C1021 160.81 974.661 207.148 917.5 207.148C860.339 207.148 814 160.81 814 103.648C814 46.4867 860.339 0.148163 917.5 0.148163ZM917 53.1482C888.833 53.1482 866 75.9816 866 104.148C866 132.315 888.833 155.148 917 155.148C945.167 155.148 968 132.315 968 104.148C968 75.9816 945.167 53.1482 917 53.1482Z" fill="#3E6FF4"/>
<path d="M813.5 308.148C870.661 308.148 917 354.487 917 411.648C917 468.81 870.661 515.148 813.5 515.148C756.339 515.148 710 468.81 710 411.648C710 354.487 756.339 308.148 813.5 308.148ZM813 361.148C784.833 361.148 762 383.982 762 412.148C762 440.315 784.833 463.148 813 463.148C841.167 463.148 864 440.315 864 412.148C864 383.982 841.167 361.148 813 361.148Z" fill="#3E6FF4"/>
<path d="M195 259.148L252 259.148" stroke="#3E6FF4" stroke-width="49" stroke-linecap="square"/>
<path d="M823 106.148L671.004 106.148C627.501 106.148 591.281 139.538 587.75 182.898C584.219 226.258 547.999 259.648 504.496 259.648L457.5 259.648" stroke="#3E6FF4" stroke-width="49" stroke-linejoin="round"/>
<path d="M734 411.648L668.181 411.648C625.284 411.648 589.706 378.443 586.75 335.648C583.794 292.853 548.216 259.648 505.319 259.648L463.5 259.648" stroke="#3E6FF4" stroke-width="49" stroke-linejoin="round"/>
</svg>
