<svg width="223" height="194" viewBox="0 0 223 194" fill="none" xmlns="http://www.w3.org/2000/svg">
<rect width="223" height="194" fill="#F5F5F5"/>
<rect width="223" height="194" fill="white"/>
<path d="M101.5 2.5H125.5L139.5 26.5L154 2.5H165.5L171.5 12.5L151.5 47.5L165.5 73.5L154 93L101.5 2.5Z" fill="#3E6FF4" stroke="#3E6FF4"/>
<path d="M188.375 41L200.375 61.7846L186.591 85.909L214.625 86.4663L220.375 96.4256L214.715 106.622L174.404 106.801L158.888 131.926L136.25 131.716L188.375 41Z" fill="#3E6FF4" stroke="#3E6FF4"/>
<path d="M197.936 135.169L185.936 155.954L158.151 156.078L171.686 180.636L165.936 190.595L154.275 190.791L133.964 155.97L104.448 155.095L93.3102 135.386L197.936 135.169Z" fill="#3E6FF4" stroke="#3E6FF4"/>
<path d="M121.168 191.36H97.1676L83.1676 167.36L68.6676 191.36H57.1676L51.1676 181.36L71.1676 146.36L57.1676 120.36L68.6676 100.86L121.168 191.36Z" fill="#3E6FF4" stroke="#3E6FF4"/>
<path d="M35 151.872L23 131.087L36.7846 106.963L8.75 106.405L3 96.4461L8.66025 86.25L48.9711 86.0705L64.4878 60.9461L87.1253 61.1554L35 151.872Z" fill="#3E6FF4" stroke="#3E6FF4"/>
<path d="M25 57.6218L37 36.8372L64.7846 36.7128L51.25 12.1554L57 2.19614L68.6603 1.99999L88.9711 36.8205L118.488 37.6961L129.625 57.4054L25 57.6218Z" fill="#3E6FF4" stroke="#3E6FF4"/>
</svg>
